<svg width="166" height="54" viewBox="0 0 166 54" fill="none" xmlns="http://www.w3.org/2000/svg">
<path d="M32.8154 2H31.3563V51.936H32.8154V2Z" fill="#E95D15"/>
<path d="M37.2689 2H35.8098V51.936H37.2689V2Z" fill="#E95D15"/>
<path d="M59.5488 41.571H40.9951V43.0301H59.5488V41.571Z" fill="#E95D15"/>
<path d="M59.5488 46.0259H40.9951V47.485H59.5488V46.0259Z" fill="#E95D15"/>
<path d="M59.5488 37.1162H40.9951V38.5753H59.5488V37.1162Z" fill="#E95D15"/>
<path d="M59.5488 51.9399H40.2583V2H41.7173V50.4873H59.5422L59.5488 51.9399Z" fill="#E95D15"/>
<path d="M22.9733 52.4785C17.4131 52.471 12.0831 50.2589 8.1515 46.3272C4.21986 42.3956 2.00754 37.0653 2 31.5051V2H3.45901V31.5C3.46188 34.3957 4.10864 37.2547 5.352 39.87C6.59536 42.4852 8.4045 44.7914 10.6485 46.6217C12.8925 48.452 15.5152 49.7607 18.327 50.4529C21.1388 51.1452 24.0693 51.2038 26.9066 50.6246V2H28.3656V51.7885L27.8027 51.9179C26.22 52.2906 24.5992 52.4787 22.9733 52.4785Z" fill="#E95D15"/>
<path d="M22.9733 48.0275C18.5924 48.0227 14.3926 46.2803 11.2949 43.1825C8.19711 40.0848 6.4545 35.8847 6.44971 31.5038V2H7.90872V31.5C7.91027 33.8618 8.46686 36.1903 9.53336 38.2977C10.5999 40.4051 12.1466 42.2324 14.0488 43.6324C15.9511 45.0323 18.1556 45.9658 20.4848 46.3575C22.814 46.7492 25.2026 46.5882 27.4581 45.8874L27.8918 47.2805C26.2994 47.7762 24.641 48.0281 22.9733 48.0275Z" fill="#E95D15"/>
<path d="M22.9732 43.5687C19.7736 43.5649 16.7061 42.2922 14.4436 40.0297C12.1811 37.7672 10.9086 34.6996 10.9048 31.5V2H12.3638V31.5C12.365 33.2718 12.8096 35.0152 13.6572 36.5711C14.5048 38.1271 15.7282 39.4462 17.2162 40.4081C18.7042 41.3701 20.4093 41.9443 22.1761 42.0784C23.9429 42.2126 25.7152 41.9024 27.3313 41.1762L27.9306 42.5071C26.3728 43.2104 24.6825 43.5724 22.9732 43.5687Z" fill="#E95D15"/>
<path d="M22.9733 39.1138C20.9546 39.1118 19.0192 38.3089 17.5918 36.8815C16.1643 35.4541 15.3617 33.5186 15.3596 31.5V2H16.8186V31.5C16.8189 32.6949 17.1671 33.8639 17.8206 34.8644C18.4741 35.8648 19.4046 36.6534 20.4987 37.1338C21.5928 37.6143 22.8031 37.7659 23.9819 37.5701C25.1607 37.3743 26.2569 36.8396 27.137 36.0312L28.1247 37.1058C26.721 38.3988 24.8818 39.1158 22.9733 39.1138Z" fill="#E95D15"/>
<path d="M64.5488 34.1352V22.0222H69.2749V33.1792C69.2749 34.9202 69.8747 35.8082 71.5837 35.8082C73.3957 35.8082 74.784 34.0672 75.137 33.6402V22.0222H79.8628V34.3512C79.8518 36.0204 80.0061 37.6865 80.3237 39.3252H75.6699C75.4805 38.5682 75.3617 37.7952 75.3149 37.0162C74.661 37.8736 73.8165 38.567 72.8484 39.0419C71.8803 39.5167 70.8151 39.7599 69.7368 39.7522C65.9368 39.7522 64.5488 37.3002 64.5488 34.1382" fill="white"/>
<path d="M83.5918 22.0222H88.2109V24.1902C88.8746 23.3715 89.7145 22.713 90.668 22.2639C91.6215 21.8148 92.6638 21.5865 93.7178 21.5962C97.4828 21.5962 98.9048 24.0122 98.9048 27.2102V39.3252H94.1799V28.1692C94.1799 26.4282 93.5799 25.5402 91.8699 25.5402C91.1543 25.6165 90.4644 25.8504 89.8501 26.2251C89.2358 26.5998 88.7122 27.106 88.3169 27.7072V39.3252H83.5918V22.0222Z" fill="white"/>
<path d="M102.776 22.0222H107.537V39.3222H102.776V22.0222ZM102.276 16.9422C102.279 16.5702 102.357 16.2026 102.504 15.861C102.652 15.5193 102.865 15.2104 103.133 14.9524C103.401 14.6943 103.718 14.4922 104.065 14.3579C104.412 14.2236 104.782 14.1598 105.154 14.1702C105.528 14.1592 105.9 14.2225 106.249 14.3562C106.598 14.4899 106.917 14.6914 107.188 14.9491C107.459 15.2068 107.676 15.5156 107.827 15.8577C107.978 16.1998 108.059 16.5684 108.067 16.9422C108.064 17.3205 107.986 17.6945 107.837 18.0425C107.689 18.3905 107.473 18.7057 107.202 18.97C106.932 19.2342 106.611 19.4421 106.26 19.5819C105.908 19.7216 105.532 19.7904 105.154 19.7842C104.777 19.7899 104.404 19.7205 104.054 19.5802C103.705 19.4398 103.387 19.2313 103.119 18.9667C102.851 18.7021 102.638 18.3868 102.494 18.0392C102.349 17.6916 102.275 17.3187 102.276 16.9422Z" fill="white"/>
<path d="M116.491 13.7443H111.766V39.3253H116.491V13.7443Z" fill="white"/>
<path d="M129.138 34.7782V31.6512H128.538C125.766 31.6512 123.847 32.4682 123.847 34.4932C123.85 34.7555 123.908 35.0141 124.019 35.252C124.13 35.4898 124.289 35.7015 124.488 35.8728C124.687 36.0442 124.919 36.1713 125.171 36.2459C125.422 36.3204 125.687 36.3406 125.947 36.3052C126.561 36.3076 127.167 36.1715 127.721 35.9072C128.275 35.6428 128.762 35.2569 129.147 34.7782M119.306 34.8842C119.306 30.3722 123.96 28.7372 128.544 28.7372H129.144V27.7432C129.144 26.0722 128.398 25.3272 126.338 25.3272C124.726 25.3543 123.172 25.9308 121.932 26.9612L119.871 24.0832C121.808 22.4031 124.308 21.515 126.871 21.5962C131.597 21.5962 133.835 23.4082 133.835 27.9962V34.2142C133.812 35.9328 133.98 37.6486 134.335 39.3302H129.68C129.525 38.7249 129.43 38.106 129.396 37.4822C128.802 38.1964 128.058 38.7706 127.216 39.1637C126.375 39.5568 125.457 39.7591 124.528 39.7562C121.58 39.7562 119.306 37.9802 119.306 34.8892" fill="white"/>
<path d="M137.38 22.0222H141.999V24.1542C142.614 23.364 143.401 22.7233 144.299 22.2803C145.197 21.8373 146.184 21.6034 147.186 21.5962C149.638 21.5962 150.986 22.6962 151.628 24.3322C152.28 23.4813 153.119 22.7918 154.08 22.3174C155.041 21.8429 156.098 21.5961 157.17 21.5962C160.83 21.5962 162.109 24.0122 162.109 27.2102V39.3252H157.383V28.1692C157.383 26.4632 156.883 25.5402 155.323 25.5402C154.675 25.6126 154.05 25.8249 153.492 26.1622C152.934 26.4996 152.455 26.954 152.09 27.4942V39.3252H147.364V28.1692C147.364 26.4282 146.764 25.5402 145.339 25.5402C143.598 25.5402 142.461 27.2102 142.106 27.6722V39.3252H137.38V22.0222Z" fill="white"/>
</svg>
