<svg width="208" height="90" viewBox="0 0 208 90" fill="none" xmlns="http://www.w3.org/2000/svg">
<path d="M90 0H0V90H90V0Z" fill="white"/>
<path d="M47.2666 20.2557H45.8075V70.1918H47.2666V20.2557Z" fill="#E95D15"/>
<path d="M51.7201 20.2557H50.261V70.1918H51.7201V20.2557Z" fill="#E95D15"/>
<path d="M74 59.8267H55.4463V61.2857H74V59.8267Z" fill="#E95D15"/>
<path d="M74 64.2816H55.4463V65.7407H74V64.2816Z" fill="#E95D15"/>
<path d="M74 55.3719H55.4463V56.831H74V55.3719Z" fill="#E95D15"/>
<path d="M74 70.1957H54.7095V20.2557H56.1685V68.7431H73.9933L74 70.1957Z" fill="#E95D15"/>
<path d="M37.4245 70.7342C31.8643 70.7267 26.5343 68.5146 22.6027 64.583C18.671 60.6513 16.4587 55.321 16.4512 49.7609V20.2557H17.9102V49.7557C17.9131 52.6515 18.5598 55.5104 19.8032 58.1257C21.0465 60.741 22.8557 63.0472 25.0997 64.8775C27.3437 66.7078 29.9663 68.0164 32.7781 68.7087C35.59 69.4009 38.5205 69.4596 41.3577 68.8803V20.2557H42.8168V70.0442L42.2538 70.1737C40.6712 70.5463 39.0504 70.7344 37.4245 70.7342Z" fill="#E95D15"/>
<path d="M37.4245 66.2832C33.0436 66.2784 28.8438 64.536 25.746 61.4383C22.6483 58.3405 20.9057 54.1404 20.9009 49.7596V20.2557H22.3599V49.7557C22.3614 52.1176 22.918 54.446 23.9845 56.5534C25.051 58.6608 26.5978 60.4881 28.5 61.8881C30.4023 63.2881 32.6068 64.2215 34.936 64.6132C37.2651 65.0049 39.6537 64.8439 41.9093 64.1432L42.3429 65.5362C40.7506 66.032 39.0922 66.2838 37.4245 66.2832Z" fill="#E95D15"/>
<path d="M37.4244 61.8244C34.2247 61.8207 31.1573 60.5479 28.8948 58.2854C26.6322 56.0229 25.3597 52.9554 25.356 49.7557V20.2557H26.815V49.7557C26.8162 51.5275 27.2608 53.2709 28.1084 54.8269C28.9559 56.3828 30.1794 57.7019 31.6674 58.6638C33.1554 59.6258 34.8605 60.2 36.6273 60.3342C38.394 60.4683 40.1663 60.1582 41.7825 59.4319L42.3818 60.7628C40.824 61.4662 39.1336 61.8282 37.4244 61.8244Z" fill="#E95D15"/>
<path d="M37.4245 57.3695C35.4058 57.3675 33.4704 56.5647 32.0429 55.1372C30.6155 53.7098 29.8128 51.7744 29.8108 49.7557V20.2557H31.2698V49.7557C31.2701 50.9506 31.6183 52.1197 32.2718 53.1201C32.9252 54.1205 33.8558 54.9091 34.9499 55.3896C36.044 55.87 37.2543 56.0216 38.4331 55.8258C39.6119 55.63 40.7081 55.0953 41.5881 54.287L42.5759 55.3615C41.1722 56.6546 39.333 57.3715 37.4245 57.3695Z" fill="#E95D15"/>
<path d="M100 51.391V39.278H104.726V50.435C104.726 52.176 105.326 53.064 107.035 53.064C108.847 53.064 110.235 51.323 110.588 50.896V39.278H115.314V51.607C115.303 53.2761 115.457 54.9423 115.775 56.581H111.121C110.932 55.8239 110.813 55.0509 110.766 54.272C110.112 55.1293 109.268 55.8228 108.3 56.2976C107.331 56.7725 106.266 57.0157 105.188 57.008C101.388 57.008 100 54.556 100 51.394" fill="white"/>
<path d="M119.043 39.278H123.662V41.446C124.326 40.6272 125.166 39.9687 126.119 39.5196C127.073 39.0705 128.115 38.8423 129.169 38.852C132.934 38.852 134.356 41.268 134.356 44.466V56.581H129.631V45.425C129.631 43.684 129.031 42.796 127.321 42.796C126.606 42.8723 125.916 43.1061 125.301 43.4808C124.687 43.8555 124.163 44.3617 123.768 44.963V56.581H119.043V39.278Z" fill="white"/>
<path d="M138.227 39.2779H142.988V56.5779H138.227V39.2779ZM137.727 34.1979C137.731 33.8259 137.808 33.4583 137.956 33.1167C138.103 32.7751 138.317 32.4662 138.584 32.2081C138.852 31.95 139.169 31.7479 139.516 31.6136C139.863 31.4793 140.233 31.4155 140.605 31.4259C140.979 31.415 141.351 31.4782 141.7 31.6119C142.049 31.7456 142.368 31.9471 142.639 32.2048C142.91 32.4626 143.127 32.7714 143.278 33.1135C143.429 33.4555 143.51 33.8241 143.518 34.1979C143.515 34.5762 143.437 34.9502 143.289 35.2982C143.14 35.6463 142.924 35.9615 142.654 36.2257C142.383 36.4899 142.062 36.6979 141.711 36.8376C141.359 36.9774 140.983 37.0461 140.605 37.0399C140.228 37.0456 139.855 36.9763 139.505 36.8359C139.156 36.6956 138.838 36.487 138.57 36.2224C138.302 35.9579 138.09 35.6426 137.945 35.295C137.8 34.9474 137.726 34.5744 137.727 34.1979Z" fill="white"/>
<path d="M151.942 31H147.217V56.581H151.942V31Z" fill="white"/>
<path d="M164.589 52.0339V48.9069H163.989C161.217 48.9069 159.298 49.7239 159.298 51.7489C159.301 52.0112 159.36 52.2699 159.47 52.5077C159.581 52.7456 159.741 52.9572 159.939 53.1286C160.138 53.2999 160.371 53.4271 160.622 53.5016C160.874 53.5762 161.138 53.5964 161.398 53.5609C162.012 53.5633 162.618 53.4273 163.172 53.1629C163.726 52.8985 164.214 52.5126 164.598 52.0339M154.757 52.1399C154.757 47.6279 159.411 45.9929 163.995 45.9929H164.595V44.9989C164.595 43.3279 163.849 42.5829 161.789 42.5829C160.177 42.6101 158.623 43.1865 157.383 44.2169L155.322 41.3389C157.259 39.6588 159.759 38.7708 162.322 38.8519C167.048 38.8519 169.286 40.6639 169.286 45.2519V51.4699C169.263 53.1885 169.431 54.9043 169.786 56.5859H165.131C164.976 55.9807 164.881 55.3617 164.847 54.7379C164.253 55.4521 163.509 56.0263 162.667 56.4194C161.826 56.8125 160.908 57.0148 159.979 57.0119C157.031 57.0119 154.757 55.2359 154.757 52.1449" fill="white"/>
<path d="M172.831 39.2779H177.45V41.4099C178.065 40.6197 178.852 39.979 179.75 39.536C180.649 39.093 181.635 38.8591 182.637 38.8519C185.089 38.8519 186.437 39.9519 187.079 41.5879C187.731 40.737 188.57 40.0476 189.531 39.5731C190.492 39.0986 191.549 38.8519 192.621 38.8519C196.281 38.8519 197.56 41.2679 197.56 44.4659V56.5809H192.834V45.4249C192.834 43.7189 192.334 42.7959 190.774 42.7959C190.126 42.8684 189.501 43.0806 188.943 43.4179C188.385 43.7553 187.906 44.2097 187.541 44.7499V56.5809H182.815V45.4249C182.815 43.6839 182.215 42.7959 180.79 42.7959C179.049 42.7959 177.912 44.4659 177.557 44.9279V56.5809H172.831V39.2779Z" fill="white"/>
</svg>
